<?xml version="1.0" encoding="utf-8"?>
<!-- Generator: Adobe Illustrator 19.0.0, SVG Export Plug-In . SVG Version: 6.00 Build 0)  -->
<svg version="1.1" id="Layer_1" xmlns="http://www.w3.org/2000/svg" xmlns:xlink="http://www.w3.org/1999/xlink" x="0px" y="0px"
	 viewBox="0 0 204.5 51.7" style="enable-background:new 0 0 204.5 51.7;" xml:space="preserve">
<style type="text/css">
	.st0{fill:#FFFFFF;}
</style>
<g id="XMLID_79_">
	<g id="XMLID_95_">
		<path id="XMLID_99_" class="st0" d="M43.5,31.2C43.5,31.2,43.5,31.2,43.5,31.2L43.5,31.2c2.4-3.7,3.9-8.2,3.9-13
			c0-1.3-0.1-2.6-0.3-3.8c-0.3-2.7-2.3-4-3.8-4c-2.1,0-4,1.7-3.5,5.4c0,0,0,0,0,0c0.1,0.8,0.2,1.7,0.2,2.5
			c-0.1,9-7.6,16.3-16.6,16.1c-8.8-0.2-16-7.4-16-16.3c0-4.2,1.6-8.1,4.3-11c0,0,0,0,0,0c0,0,2.1-2,2.1-3.4C13.8,1.7,12.1,0,10,0
			C9.1,0,8,0.4,7.1,1.3c0,0,0,0,0,0C2.7,5.6,0,11.6,0,18.1C0,31,10.2,41.5,22.9,41.9c0,0,1.3,0,1.3,0c12.3,0.1,16.7,6.2,16.7,6.2
			c-2.2-8.3,1-14.4,2.2-16.3C43.2,31.6,43.4,31.4,43.5,31.2z"/>
		<path id="XMLID_96_" class="st0" d="M23.7,8.5c-5.3,0-9.6,4.3-9.6,9.6s4.3,9.6,9.6,9.6s9.6-4.3,9.6-9.6S29,8.5,23.7,8.5z
			 M26.9,18.5l-4.8,3.1c-0.2,0.1-0.4,0-0.4-0.2L21.6,15c0-0.2,0.2-0.4,0.4-0.2l4.9,3.2C27.1,18.1,27.1,18.4,26.9,18.5z"/>
	</g>
	<g id="XMLID_80_">
		<path id="XMLID_93_" class="st0" d="M96.1,18c1.2,2,1.9,4.7,1.9,8.3v12.6c0,0.9-0.3,1.6-0.8,2.1c-0.6,0.6-1.3,0.9-2.1,0.9
			c-0.9,0-1.6-0.3-2.1-0.9c-0.6-0.6-0.8-1.3-0.8-2.1V26.3c0-1.8-0.4-3.2-1.1-4.3c-0.7-1-1.9-1.6-3.7-1.6c-1.8,0-3.3,0.6-4.3,1.7
			c-1,1.1-1.6,2.5-1.6,4.2v12.6c0,0.9-0.3,1.6-0.8,2.1c-0.6,0.6-1.3,0.9-2.1,0.9c-0.9,0-1.6-0.3-2.1-0.9c-0.6-0.6-0.8-1.3-0.8-2.1
			V26.3c0-1.8-0.4-3.2-1.1-4.3c-0.7-1-1.9-1.6-3.7-1.6c-1.8,0-3.3,0.6-4.3,1.7c-1,1.1-1.6,2.5-1.6,4.2v12.6c0,0.9-0.3,1.6-0.8,2.1
			c-0.6,0.6-1.3,0.9-2.1,0.9c-0.9,0-1.6-0.3-2.1-0.9c-0.6-0.6-0.8-1.3-0.8-2.1V18.5c0-0.9,0.3-1.6,0.8-2.1c0.6-0.6,1.3-0.9,2.1-0.9
			c0.9,0,1.6,0.3,2.1,0.9c0.6,0.6,0.8,1.3,0.8,2.1v0.8c0.9-1.2,2-2.2,3.4-3c1.4-0.8,2.9-1.3,4.6-1.3c4.1,0,6.8,1.8,7.9,5.4
			c0.8-1.4,1.9-2.6,3.4-3.7c1.5-1.1,3.3-1.7,5.2-1.7C92.6,15,94.8,16,96.1,18z"/>
		<path id="XMLID_90_" class="st0" d="M125.4,35.8c-1.2,2.1-2.8,3.7-4.9,4.9c-2.1,1.2-4.3,1.7-6.8,1.7c-2.5,0-4.8-0.6-6.8-1.7
			c-2-1.1-3.6-2.8-4.8-4.9c-1.2-2.1-1.8-4.4-1.8-7.1c0-2.6,0.6-5,1.8-7.1c1.2-2.1,2.8-3.7,4.8-4.9c2-1.2,4.3-1.7,6.8-1.7
			c2.5,0,4.7,0.6,6.8,1.7c2.1,1.2,3.7,2.8,4.9,4.9c1.2,2.1,1.8,4.4,1.8,7.1C127.2,31.4,126.6,33.7,125.4,35.8z M120.3,24.4
			c-0.7-1.3-1.6-2.2-2.7-2.9s-2.4-1-3.8-1c-1.4,0-2.6,0.3-3.8,1s-2,1.7-2.7,2.9c-0.7,1.3-1,2.7-1,4.3c0,1.6,0.3,3,1,4.3
			c0.7,1.2,1.6,2.2,2.7,2.9c1.1,0.7,2.4,1,3.8,1c1.4,0,2.6-0.3,3.8-1c1.1-0.7,2-1.7,2.7-2.9c0.7-1.2,1-2.7,1-4.3
			C121.3,27.1,121,25.7,120.3,24.4z"/>
		<path id="XMLID_88_" class="st0" d="M151.7,16.3c0.5,0.5,0.8,1.1,0.8,1.9c0,0.4-0.1,0.9-0.4,1.5L142.8,40c-0.2,0.6-0.6,1-1,1.3
			c-0.4,0.3-0.9,0.5-1.5,0.5l-0.4,0c-0.6,0-1.1-0.2-1.6-0.5c-0.5-0.3-0.8-0.8-1.1-1.4l-9.2-20.3c-0.2-0.5-0.3-1.1-0.3-1.6
			c0-0.7,0.3-1.3,0.8-1.8c0.6-0.5,1.2-0.8,2.1-0.8c0.6,0,1.2,0.2,1.7,0.5c0.5,0.3,0.9,0.8,1.2,1.4l6.8,15.6l6.8-15.5
			c0.3-0.6,0.6-1.1,1.1-1.4c0.5-0.3,1-0.5,1.5-0.4C150.5,15.6,151.1,15.8,151.7,16.3z"/>
		<path id="XMLID_85_" class="st0" d="M154.9,11.8c-0.5-0.4-0.7-1-0.7-1.9V8.9c0-0.9,0.2-1.6,0.7-1.9c0.5-0.4,1.3-0.5,2.4-0.5
			c1.1,0,2,0.2,2.4,0.5c0.5,0.4,0.7,1,0.7,1.9v0.9c0,1-0.2,1.6-0.7,1.9c-0.5,0.3-1.3,0.5-2.4,0.5C156.1,12.3,155.3,12.1,154.9,11.8z
			 M159.4,41c-0.6,0.6-1.3,0.9-2.1,0.9c-0.9,0-1.6-0.3-2.1-0.9c-0.6-0.6-0.8-1.3-0.8-2.1V18.5c0-0.9,0.3-1.6,0.8-2.1
			c0.6-0.6,1.3-0.9,2.1-0.9c0.9,0,1.6,0.3,2.1,0.9c0.6,0.6,0.8,1.3,0.8,2.1v20.4C160.3,39.7,160,40.4,159.4,41z"/>
		<path id="XMLID_83_" class="st0" d="M174.2,11.6c-0.5,0.6-0.7,1.3-0.7,2.1V16h4.5c0.8,0,1.4,0.3,2,0.8c0.5,0.5,0.8,1.2,0.8,1.9
			c0,0.8-0.3,1.4-0.8,1.9c-0.5,0.5-1.2,0.8-2,0.8h-4.5v17.5c0,0.9-0.3,1.6-0.8,2.1c-0.6,0.6-1.3,0.9-2.1,0.9c-0.9,0-1.6-0.3-2.1-0.9
			c-0.6-0.6-0.8-1.3-0.8-2.1V21.4h-2.7c-0.8,0-1.4-0.3-2-0.8c-0.5-0.5-0.8-1.2-0.8-1.9c0-0.8,0.3-1.4,0.8-1.9c0.5-0.5,1.2-0.8,2-0.8
			h2.7v-2.3c0-2.5,0.8-4.5,2.5-6c1.7-1.5,4.1-2.3,7.3-2.3c1.2,0,2.3,0.2,3.2,0.7c0.9,0.5,1.4,1.2,1.4,2.3c0,0.8-0.2,1.4-0.7,1.9
			c-0.5,0.5-1,0.7-1.7,0.7c-0.2,0-0.3,0-0.5,0c-0.2,0-0.4-0.1-0.6-0.1c-0.8-0.2-1.4-0.3-2-0.3C175.4,10.6,174.6,11,174.2,11.6z"/>
		<path id="XMLID_81_" class="st0" d="M203.6,16.4c0.6,0.6,0.8,1.3,0.8,2.1v21c0,4.3-1.2,7.4-3.5,9.3c-2.3,2-5.4,2.9-9.2,2.9
			c-1.1,0-2.3-0.1-3.4-0.3c-1.2-0.2-2.1-0.4-2.8-0.7c-1.6-0.7-2.4-1.6-2.4-2.9c0-0.2,0-0.5,0.1-0.8c0.2-0.7,0.5-1.3,1-1.7
			c0.5-0.4,1-0.6,1.6-0.6c0.3,0,0.6,0,0.9,0.1c0.2,0.1,0.6,0.3,1.2,0.5c0.6,0.2,1.2,0.4,1.8,0.6c0.6,0.1,1.3,0.2,2,0.2
			c2.3,0,4.1-0.5,5.2-1.5c1.1-1,1.7-2.7,1.7-5.2v-0.5c-1.7,2.1-4.4,3.2-8,3.2c-1.7,0-3.2-0.4-4.5-1.2c-1.3-0.8-2.3-1.9-3.1-3.4
			c-0.7-1.4-1.1-3.1-1.1-4.9V18.5c0-0.9,0.3-1.6,0.8-2.1c0.6-0.6,1.3-0.9,2.1-0.9c0.9,0,1.6,0.3,2.1,0.9c0.6,0.6,0.8,1.3,0.8,2.1
			v12.6c0,2.1,0.5,3.6,1.4,4.5c0.9,0.9,2.2,1.4,4,1.4c1.7,0,3-0.5,4-1.5c0.9-1,1.4-2.4,1.4-4.3V18.5c0-0.9,0.3-1.6,0.8-2.1
			c0.6-0.6,1.3-0.9,2.1-0.9C202.4,15.5,203.1,15.8,203.6,16.4z"/>
	</g>
</g>
</svg>
